PathFileType	4	(x/y/z)	S01_PSF_T06.trc
DataRate	CameraRate	NumFrames	NumMarkers	Units	OrigDataRate	OrigDataStartFrame	OrigNumFrames
240	240	9	51	mm	240	295	471
Frame#	Time	Sternum			R.Acromium			L.Acromium			Top.Head			R.ASIS			L.ASIS			R.PSIS			L.PSIS			R.Great.Tro			L.Great.Tro			R.Iliac.Crest			L.Iliac.Crest			V.Sacral			R.Thigh.Upper.Post			R.Thigh.Lower.Ant			R.Thigh.Lower.Post			R.Thigh.Upper.Ant			R.Knee.Lat			R.Knee.Med			R.Shank.Upper.Post			R.Shank.Lower.Ant			R.Shank.Lower.Post			R.Shank.Upper.Ant			R.Ankle.Lat			R.Ankle.Med			R.Heel.Upper			R.Heel.Med			R.Heel.Lat			R.Toe.Lat			R.Toe.Med			R.Toe.Tip			L.Thigh.Upper.Post			L.Thigh.Lower.Ant			L.Thigh.Lower.Post			L.Thigh.Upper.Ant			L.Knee.Lat			L.Knee.Med			L.Shank.Upper.Post			L.Shank.Lower.Ant			L.Shank.Lower.Post			L.Shank.Upper.Ant			L.Ankle.Lat			L.Ankle.Med			L.Heel.Upper			L.Heel.Med			L.Heel.Lat			L.Toe.Lat			L.Toe.Med			L.Toe.Tip			Cervical.Spine			Back			
		X1	Y1	Z1	X2	Y2	Z2	X3	Y3	Z3	X4	Y4	Z4	X5	Y5	Z5	X6	Y6	Z6	X7	Y7	Z7	X8	Y8	Z8	X9	Y9	Z9	X10	Y10	Z10	X11	Y11	Z11	X12	Y12	Z12	X13	Y13	Z13	X14	Y14	Z14	X15	Y15	Z15	X16	Y16	Z16	X17	Y17	Z17	X18	Y18	Z18	X19	Y19	Z19	X20	Y20	Z20	X21	Y21	Z21	X22	Y22	Z22	X23	Y23	Z23	X24	Y24	Z24	X25	Y25	Z25	X26	Y26	Z26	X27	Y27	Z27	X28	Y28	Z28	X29	Y29	Z29	X30	Y30	Z30	X31	Y31	Z31	X32	Y32	Z32	X33	Y33	Z33	X34	Y34	Z34	X35	Y35	Z35	X36	Y36	Z36	X37	Y37	Z37	X38	Y38	Z38	X39	Y39	Z39	X40	Y40	Z40	X41	Y41	Z41	X42	Y42	Z42	X43	Y43	Z43	X44	Y44	Z44	X45	Y45	Z45	X46	Y46	Z46	X47	Y47	Z47	X48	Y48	Z48	X49	Y49	Z49	X50	Y50	Z50	X51	Y51	Z51	

295	1.225	320.62	1280.9	227.05	210.31	1538.6	392.46	203.24	1544.2	62.212	267.61	1851.4	214.75	259.01	1034.1	390.97	280.35	1033.8	124.85	28.692	1070.2	278.78	33.306	1068.2	174.96	176.77	980.23	465.3	184.38	980.79	39.734	169.4	1132.9	447.23	174.28	1111.4	40.112	17.628	1032.6	223.16	231.48	676.94	466.02	316.74	620.25	463.13	254.31	590.45	456.32	297.1	708.74	470.8	276.06	533.88	461.56	317.46	528.94	314.1	134.53	459.42	454.35	122.35	357.23	414.84	82.635	415.3	437.44	171.84	406.22	439.35	-59.702	279.08	380.97	-16.127	253.76	296.38	-109.16	314.02	307.14	-116.62	284.95	274.65	-135.67	288.26	336.83	-55.193	127.92	417.51	-2.3161	106.66	307.01	38.673	69.451	373.13	197.83	692.51	73.705	292.13	636.01	81.668	220.31	607.01	97.179	260.73	723.29	57.616	283.32	530.84	96.536	297.68	543.1	236.49	224.86	393.29	79.129	280.46	302.05	110.99	221.62	315.73	85.962	284.36	378.37	100.18	193.2	107.02	128.04	215.3	117.64	226.35	119.11	77.057	171.88	127.83	52.542	206.61	128.37	50.329	143.73	339.57	39.996	117.61	361.34	46.699	240.27	426.59	54.053	191.22	123.31	1603.2	230.29	20.918	1295.3	248.64
296	1.2292	325.53	1282.1	227.12	214.91	1539.7	392.4	208.57	1545.4	62.102	272.95	1852.4	214.83	263.94	1035.6	390.63	285.11	1034.8	124.55	33.603	1071.3	278.92	38.077	1069.3	175.09	182.01	981.81	465.33	188.72	981.62	39.682	174.43	1134.5	446.91	178.82	1112.4	39.97	22.45	1033.7	223.33	239.3	678.75	466.46	325.07	622.83	463.18	262.87	592.47	456.59	304.63	711.16	471.01	285.07	536	461.62	326.54	531.59	314.24	144.33	459.95	454.26	133.57	357.51	414.74	93.065	415.09	437.24	182.38	407.2	439.33	-47.364	276.89	380.74	-3.4502	252.33	296.16	-97.513	310.95	306.9	-104.5	281.69	274.47	-123.53	284.72	336.65	-40.132	125.97	417.41	12.926	105.56	306.88	54.682	69.181	372.98	199.91	693.33	73.672	293.76	636.03	81.327	221.73	607.64	97.001	263.04	723.55	57.312	284.09	530.93	96.131	298.91	542.97	236.07	225.12	393.47	78.838	280.61	302.12	110.61	221.75	315.91	85.704	284.62	378.45	99.763	193.25	107.13	127.99	215.39	117.78	226.25	119.14	77.206	171.87	127.84	52.703	206.59	128.4	50.476	143.72	339.58	39.96	117.57	361.36	46.724	240.24	426.61	54.014	191.19	128.39	1604.2	229.99	25.893	1296.5	248.1
297	1.2333	330.44	1283.3	227.19	219.51	1540.8	392.35	213.88	1546.6	62.005	278.27	1853.4	214.93	268.89	1037	390.27	289.85	1035.8	124.24	38.507	1072.5	279.08	42.838	1070.4	175.25	187.27	983.36	465.36	193.04	982.43	39.644	179.46	1136	446.59	183.34	1113.4	39.827	27.269	1034.8	223.53	247.07	680.55	466.89	333.33	625.4	463.18	271.37	594.49	456.85	312.12	713.55	471.19	294.01	538.09	461.64	335.48	534.21	314.33	154.11	460.37	454.16	144.82	357.71	414.65	103.5	414.74	437.04	192.9	408.11	439.31	-34.919	274.5	380.54	9.3223	250.74	295.97	-85.798	307.63	306.71	-92.288	278.19	274.34	-111.28	280.91	336.53	-24.846	123.86	417.3	28.384	104.36	306.72	70.918	68.843	372.8	201.96	694.15	73.652	295.35	636.06	80.991	223.12	608.28	96.836	265.32	723.79	57.013	284.81	531.02	95.734	300.11	542.83	235.66	225.35	393.65	78.553	280.74	302.2	110.24	221.87	316.09	85.451	284.86	378.54	99.35	193.31	107.23	127.95	215.47	117.92	226.15	119.16	77.355	171.86	127.85	52.863	206.58	128.43	50.62	143.72	339.59	39.926	117.53	361.38	46.75	240.2	426.62	53.979	191.15	133.46	1605.3	229.71	30.867	1297.6	247.58
298	1.2375	335.35	1284.4	227.25	224.11	1541.9	392.31	219.17	1547.7	61.92	283.57	1854.3	215.06	273.83	1038.4	389.91	294.57	1036.8	123.92	43.405	1073.6	279.27	47.589	1071.5	175.43	192.53	984.88	465.39	197.33	983.21	39.619	184.5	1137.5	446.27	187.83	1114.4	39.686	32.085	1035.9	223.75	254.79	682.33	467.32	341.52	627.93	463.14	279.79	596.48	457.07	319.55	715.9	471.33	302.87	540.15	461.62	344.29	536.81	314.4	163.87	460.67	454.07	156.1	357.82	414.54	113.95	414.25	436.84	203.43	408.95	439.27	-22.365	271.9	380.37	22.193	249	295.8	-74.003	304.07	306.58	-79.969	274.47	274.26	-98.912	276.84	336.47	-9.3408	121.59	417.2	44.052	103.09	306.56	87.371	68.452	372.58	203.97	694.96	73.645	296.91	636.09	80.661	224.48	608.91	96.683	267.57	724.02	56.721	285.5	531.11	95.346	301.28	542.69	235.26	225.58	393.83	78.278	280.86	302.28	109.87	221.98	316.27	85.202	285.08	378.64	98.945	193.36	107.34	127.9	215.55	118.06	226.05	119.19	77.502	171.85	127.86	53.021	206.57	128.45	50.762	143.71	339.6	39.893	117.5	361.4	46.779	240.16	426.64	53.947	191.11	138.52	1606.3	229.45	35.84	1298.7	247.09
299	1.2417	340.27	1285.5	227.32	228.7	1543	392.29	224.44	1548.8	61.848	288.86	1855.2	215.21	278.78	1039.8	389.53	299.27	1037.8	123.59	48.297	1074.6	279.47	52.332	1072.5	175.63	197.8	986.37	465.42	201.61	983.97	39.606	189.54	1139	445.95	192.31	1115.3	39.548	36.895	1036.9	223.99	262.46	684.08	467.74	349.65	630.44	463.06	288.15	598.45	457.28	326.94	718.22	471.45	311.66	542.17	461.57	352.95	539.38	314.43	173.6	460.86	453.96	167.4	357.85	414.43	124.41	413.63	436.65	213.95	409.71	439.22	-9.6995	269.12	380.23	35.164	247.13	295.65	-62.121	300.28	306.5	-67.539	270.53	274.22	-86.424	272.54	336.45	6.3772	119.19	417.11	59.924	101.74	306.39	104.03	68.02	372.35	205.97	695.78	73.65	298.44	636.13	80.341	225.81	609.55	96.543	269.79	724.25	56.438	286.16	531.21	94.968	302.41	542.56	234.87	225.79	394.01	78.012	280.97	302.36	109.51	222.09	316.45	84.96	285.28	378.73	98.55	193.41	107.44	127.86	215.62	118.19	225.95	119.22	77.647	171.84	127.87	53.177	206.57	128.48	50.901	143.71	339.61	39.862	117.46	361.41	46.81	240.13	426.66	53.919	191.08	143.58	1607.3	229.21	40.81	1299.8	246.63
300	1.2458	345.18	1286.6	227.38	233.3	1544	392.28	229.69	1549.8	61.787	294.13	1856	215.38	283.73	1041.1	389.15	303.96	1038.7	123.26	53.183	1075.7	279.69	57.067	1073.5	175.85	203.07	987.82	465.45	205.86	984.69	39.606	194.58	1140.4	445.64	196.78	1116.2	39.414	41.699	1037.9	224.24	270.08	685.8	468.15	357.72	632.9	462.94	296.44	600.39	457.45	334.28	720.49	471.53	320.38	544.16	461.48	361.47	541.9	314.42	183.31	460.93	453.85	178.74	357.8	414.31	134.89	412.88	436.45	224.46	410.41	439.15	3.0799	266.15	380.13	48.238	245.11	295.54	-50.144	296.28	306.46	-54.988	266.39	274.22	-73.806	268.02	336.47	22.3	116.68	417.03	75.993	100.34	306.23	120.88	67.559	372.12	207.94	696.59	73.666	299.94	636.16	80.03	227.12	610.19	96.413	271.98	724.46	56.167	286.79	531.31	94.602	303.51	542.43	234.5	225.99	394.19	77.759	281.08	302.45	109.17	222.19	316.62	84.726	285.48	378.84	98.168	193.46	107.54	127.82	215.68	118.33	225.85	119.25	77.792	171.83	127.87	53.329	206.56	128.5	51.038	143.72	339.62	39.832	117.43	361.43	46.841	240.09	426.67	53.893	191.04	148.63	1608.2	228.98	45.779	1300.8	246.18
301	1.25	350.09	1287.7	227.45	237.89	1544.9	392.28	234.93	1550.8	61.737	299.38	1856.9	215.57	288.69	1042.4	388.77	308.63	1039.6	122.92	58.064	1076.6	279.92	61.793	1074.5	176.08	208.35	989.22	465.49	210.11	985.38	39.617	199.62	1141.8	445.35	201.25	1117.1	39.284	46.496	1038.9	224.5	277.65	687.48	468.55	365.72	635.33	462.78	304.67	602.3	457.6	341.57	722.71	471.58	329.01	546.1	461.35	369.84	544.38	314.38	193.01	460.89	453.74	190.09	357.67	414.19	145.38	412.01	436.26	234.96	411.03	439.08	15.975	263.02	380.05	61.418	242.97	295.44	-38.062	292.06	306.47	-42.31	262.04	274.26	-61.052	263.28	336.54	38.42	114.08	416.97	92.25	98.876	306.08	137.91	67.082	371.89	209.9	697.4	73.692	301.41	636.19	79.732	228.42	610.82	96.294	274.16	724.67	55.909	287.39	531.41	94.249	304.58	542.29	234.15	226.19	394.36	77.518	281.18	302.54	108.84	222.29	316.8	84.501	285.66	378.94	97.8	193.5	107.64	127.79	215.74	118.45	225.75	119.28	77.934	171.83	127.88	53.478	206.56	128.53	51.172	143.72	339.63	39.804	117.4	361.44	46.873	240.06	426.68	53.869	191	153.68	1609.1	228.76	50.747	1301.8	245.76
302	1.2542	355	1288.7	227.51	242.49	1545.8	392.3	240.15	1551.8	61.699	304.62	1857.6	215.77	293.65	1043.7	388.38	313.29	1040.4	122.57	62.939	1077.6	280.16	66.512	1075.4	176.32	213.62	990.58	465.52	214.34	986.03	39.639	204.66	1143	445.07	205.72	1117.9	39.161	51.287	1039.8	224.78	285.17	689.13	468.93	373.65	637.7	462.59	312.82	604.18	457.72	348.82	724.88	471.6	337.57	548	461.2	378.07	546.8	314.31	202.69	460.74	453.62	201.48	357.47	414.07	155.89	411.02	436.08	245.46	411.58	438.99	28.987	259.73	380	74.706	240.69	295.38	-25.867	287.64	306.51	-29.497	257.51	274.34	-48.154	258.34	336.64	54.729	111.4	416.94	108.68	97.372	305.95	155.1	66.6	371.68	211.84	698.21	73.728	302.88	636.22	79.447	229.7	611.46	96.184	276.31	724.87	55.666	287.98	531.52	93.91	305.63	542.16	233.81	226.39	394.54	77.292	281.27	302.63	108.52	222.39	316.98	84.286	285.84	379.05	97.447	193.55	107.73	127.75	215.79	118.57	225.65	119.32	78.075	171.84	127.89	53.621	206.57	128.55	51.303	143.74	339.64	39.777	117.37	361.46	46.905	240.02	426.7	53.847	190.97	158.73	1610	228.57	55.713	1302.7	245.37
303	1.2583	359.91	1289.7	227.58	247.1	1546.7	392.32	245.35	1552.7	61.67	309.83	1858.4	215.99	298.61	1044.8	388	317.93	1041.2	122.23	67.81	1078.5	280.42	71.224	1076.3	176.56	218.9	991.88	465.57	218.56	986.65	39.671	209.7	1144.3	444.81	210.19	1118.7	39.045	56.069	1040.7	225.06	292.64	690.73	469.29	381.52	640.02	462.36	320.91	606.01	457.81	356.02	727	471.58	346.05	549.85	461.01	386.17	549.16	314.21	212.35	460.47	453.49	212.88	357.19	413.94	166.42	409.9	435.9	255.94	412.06	438.89	42.117	256.3	379.98	88.102	238.3	295.34	-13.551	283.03	306.59	-16.542	252.8	274.44	-35.108	253.21	336.78	71.217	108.66	416.94	125.29	95.833	305.85	172.46	66.123	371.5	213.78	699	73.772	304.32	636.25	79.177	230.98	612.08	96.083	278.44	725.06	55.44	288.55	531.62	93.586	306.66	542.03	233.5	226.58	394.71	77.08	281.37	302.72	108.22	222.49	317.16	84.081	286.02	379.15	97.111	193.59	107.83	127.73	215.83	118.69	225.56	119.36	78.213	171.84	127.91	53.76	206.58	128.57	51.432	143.75	339.65	39.751	117.34	361.47	46.936	239.99	426.71	53.826	190.93	163.77	1610.8	228.39	60.677	1303.6	244.99
